<svg xmlns="http://www.w3.org/2000/svg" width="69" height="65" fill="none" viewBox="0 0 69 65"><path stroke="#888383" stroke-width="2" d="M11.308 14.919v-2.564a2.94 2.94 0 0 1 2.945-2.93h2.577m-5.522 5.494H2.473c-.814 0-1.473.656-1.473 1.465v1.099c0 .809.66 1.465 1.473 1.465h8.835m0-4.03v4.03m0 0v33.697a2.94 2.94 0 0 0 2.945 2.93h2.577m0-46.15v-6.96c0-.809.659-1.465 1.472-1.465h.736c.814 0 1.473.656 1.473 1.465v6.96m-3.681 0h3.681m0 0h34.236a2.94 2.94 0 0 1 2.945 2.93v40.29a2.94 2.94 0 0 1-2.945 2.93H20.511m-3.681 0v6.96c0 .809.659 1.465 1.472 1.465h.736c.814 0 1.473-.656 1.473-1.465v-6.96m-3.681 0h3.681m-9.203-26.372H2.473C1.659 29.204 1 29.86 1 30.67v1.098c0 .81.66 1.466 1.473 1.466h8.835zm0 14.285H2.473c-.814 0-1.473.656-1.473 1.465v1.1c0 .809.66 1.464 1.473 1.464h8.835zm46.384-28.57h8.836c.813 0 1.472.657 1.472 1.466v1.099c0 .809-.66 1.465-1.472 1.465h-8.836zm0 14.285h8.836c.813 0 1.472.656 1.472 1.466v1.098c0 .81-.66 1.466-1.472 1.466h-8.836zm0 14.285h8.836c.813 0 1.472.656 1.472 1.465v1.1c0 .809-.66 1.464-1.472 1.464h-8.836zM48.121 9.424V2.465c0-.809.66-1.465 1.472-1.465h.737c.813 0 1.472.656 1.472 1.465v6.96zm-15.093 0V2.465c0-.809.659-1.465 1.472-1.465h.736c.814 0 1.473.656 1.473 1.465v6.96zM48.12 55.576v6.959c0 .809.66 1.465 1.472 1.465h.737c.813 0 1.472-.656 1.472-1.465v-6.96zm-15.093 0v6.959c0 .809.659 1.465 1.472 1.465h.736c.814 0 1.473-.656 1.473-1.465v-6.96zm-12.99-6.593h28.924a2.1 2.1 0 0 0 2.104-2.093V18.11a2.1 2.1 0 0 0-2.104-2.093H20.038a2.1 2.1 0 0 0-2.104 2.093v28.78c0 1.155.942 2.093 2.104 2.093Z"/></svg>