<svg xmlns="http://www.w3.org/2000/svg" width="32" height="32" fill="none" viewBox="0 0 32 32"><path fill="#f9f7f7" fill-rule="evenodd" d="M1.939 12.567c-.3-1.748-.058-3.705.612-5.476.671-1.772 1.743-3.282 3.023-4.183 1.259-.886 2.726-1.196 4.313-.602 1.613.603 3.461 2.185 5.346 5.34a1 1 0 0 0 .127.176c.172.19.404.292.64.292a.8.8 0 0 0 .38-.093.9.9 0 0 0 .26-.2 1 1 0 0 0 .127-.176c1.885-3.154 3.733-4.736 5.346-5.34 1.587-.593 3.054-.283 4.313.603 1.28.901 2.352 2.411 3.023 4.183.67 1.77.913 3.728.612 5.476-.298 1.738-1.297 3.712-2.731 5.748-1.421 2.017-3.207 4.009-4.97 5.776A78 78 0 0 1 16 29.774l-.056-.045A77.448 77.448 0 0 1 9.64 24.09c-1.764-1.767-3.55-3.759-4.97-5.776-1.435-2.036-2.434-4.01-2.732-5.748m14.443 19.34a1 1 0 0 0 .151-.099l.024-.018.044-.033q.031-.025.074-.058.156-.121.442-.35a79.347 79.347 0 0 0 6.46-5.778c1.806-1.809 3.674-3.886 5.183-6.028 1.496-2.125 2.703-4.401 3.081-6.603.376-2.191.064-4.547-.72-6.62-.785-2.072-2.071-3.937-3.721-5.098-1.672-1.177-3.707-1.619-5.868-.81-1.866.698-3.74 2.296-5.532 4.957-1.793-2.661-3.666-4.26-5.532-4.957-2.16-.809-4.196-.367-5.868.81C2.95 2.383 1.664 4.248.88 6.32s-1.097 4.429-.721 6.62c.378 2.202 1.585 4.478 3.082 6.603 1.508 2.142 3.376 4.22 5.182 6.029a79 79 0 0 0 7.02 6.218l.024.018a.83.83 0 0 0 .915.099" clip-rule="evenodd"/></svg>